<?xml version="1.0" encoding="utf-8"?>
<!-- Generator: Adobe Illustrator 19.1.0, SVG Export Plug-In . SVG Version: 6.00 Build 0)  -->
<svg version="1.1" id="圖層_1" xmlns="http://www.w3.org/2000/svg" xmlns:xlink="http://www.w3.org/1999/xlink" x="0px" y="0px"
	 viewBox="-198 408.9 198 24" style="enable-background:new -198 408.9 198 24;" xml:space="preserve">
<style type="text/css">
	.st0{fill:#009D95;}
	.st1{fill:#FFFFFF;}
	.st2{fill:#00A28D;}
</style>
<g>
	<path class="st0" d="M-174.6,416.5c1.8,4.6,0.5,10-3.1,13.2c-3.2,2.9-7.8,3.9-12,2.5c-4.7-1.6-8-5.8-8.2-10.8
		c-0.2-4.7,2.2-8.9,6.3-11.2c3.8-2.2,9.4-1.8,12.8,0.8C-176.9,412.4-175.4,414.4-174.6,416.5z"/>
	<path class="st1" d="M-186.5,414.5c0.4-0.1,1-0.5,1.4-0.1c0.3,0.5,1.1,0.6,0.9,1.2c0.4,0.5,0.9,1.1,1.5,1.5c0.1,0,0.2,0,0.2-0.1
		l-0.2-0.1c0.2-0.2,0.6,0.1,0.9-0.1c0.2,0,0.4,0.1,0.6,0.2c0.1,0.2,0.2,0.5,0.3,0.7l0.1-0.1c0.1,0.2,0.2,0.4,0.3,0.6
		c0.9,0.3,1.3,1.4,2.1,1.8c1,0.7,2,1.5,3.2,1.9c0,0.2,0.1,0.2,0.2,0.2v0c-0.2-0.1-0.4-0.1-0.5-0.1c0.2,0.2,0.5,0.1,0.6,0.4h-0.4
		c0,0.1,0.1,0.1,0.2,0.1c-0.2-0.1-0.4,0.1-0.5-0.2c-0.8-0.4-1.6-0.9-2.3-1.3l0,0c0.6,0.6,1.4,1,2,1.3c0.2,0.1,0.6,0.2,0.7,0.4
		c-0.1,0-0.2,0-0.2,0.1l-0.2-0.1c0,0,0,0.1,0,0.1l0.1,0.1c-0.9-0.4-1.8-0.9-2.6-1.5c-0.4-0.3-0.8-0.5-1.1-0.7c-0.1,0-0.1,0-0.2,0.1
		c0.4,0.3,0.9,0.5,1.3,0.8c-0.8-0.4-1.7-0.9-2.3-1.7c-0.3-0.3-0.7-0.9-1.2-0.8c-0.2,0.1-0.5,0.1-0.7,0.2c-0.1,0-0.3-0.2-0.4-0.1
		c-0.1,0.3-0.5,0.1-0.6,0.4c-0.2,0.1-0.7,0-0.8,0.3l0,0.1c-0.5,0.2-1.2,0.2-1.5,0.6c-0.1,0.1-0.3,0-0.4,0.1c0,0,0-0.1-0.1-0.1
		c-0.1-0.1-0.2,0.1-0.3,0.1c-0.1-0.1,0.1-0.2,0.1-0.2c-0.2-0.1-0.3,0.2-0.5,0.3c0-0.2,0.3-0.2,0.3-0.4c-0.1-0.1-0.2,0.1-0.3,0.1
		c0.1,0,0.2-0.2,0-0.2c0.1-0.2,0.4-0.1,0.5-0.4h-0.2c0.2-0.2,0.4-0.3,0.6-0.5c-0.1,0-0.2-0.2-0.4,0c0,0,0.1-0.1,0-0.1
		c-0.1-0.1-0.2,0.1-0.4,0.1c0,0,0-0.1-0.1-0.1h-0.1c0.1-0.1,0.2-0.2,0.3-0.3l-0.1,0c0.4-0.2,0.8-0.5,1.1-0.7l0.1-0.1
		c-0.1-0.1-0.3-0.1-0.4,0c0.3,0,0-0.4,0.4-0.4c0.1-0.3,0.3-0.5,0.5-0.6c-0.3-0.3-0.5-0.9-0.8-1c0-0.2-0.3,0-0.3-0.2
		c-0.5,0-1,0.2-1.3-0.2c-0.2-0.1-0.5-0.1-0.8,0c-0.2,0.2-0.3,0.4-0.4,0.6c-0.2,0.2-0.3,0.4-0.5,0.6c-0.2,0.3-0.5,0.7-0.9,0.8
		c0,0,0,0,0,0c-0.3,0.4-0.9,0.2-1.2,0.6l0-0.1c-0.1,0-0.2,0.1-0.3,0.2v0.1c-0.2-0.1-0.3,0.2-0.4,0.2c-0.4,0.5-1.1,0.5-1.6,0.8
		c-0.1,0,0,0,0,0c-0.8,0.2-1.2,0.8-1.8,1.4c-0.2,0.3-0.4,0.4-0.6,0.6c0,0.2-0.3,0.3-0.4,0.4c0.1-0.2,0.3-0.3,0.4-0.5
		c-0.2,0.1-0.3,0.3-0.5,0.4c-0.1-0.1,0.1-0.2,0-0.3l-0.3,0.2l0.3-0.4c-0.2,0-0.3,0.3-0.5,0.3c-0.1,0.1-0.1,0.1-0.2,0.1v0
		c0.1-0.1,0.3-0.2,0.4-0.4c-0.2-0.1-0.4,0.1-0.5,0.1c0,0,0-0.2-0.1-0.1c0.1-0.1,0.2-0.2,0.3-0.3c-0.1,0-0.2,0-0.3,0.1
		c0-0.1,0.3-0.2,0.2-0.4c-0.3-0.1-0.3,0.3-0.6,0.4c0.3-0.4,0.7-0.6,1-1l0,0c0.5-0.6,1.2-0.9,1.8-1.3c0.5-0.3,1.2-0.5,1.6-1
		c0.2-0.2,0.3-0.4,0.4-0.6c0.1,0,0.1-0.1,0.1-0.1c0.4-0.2,0.8-0.4,1.2-0.4c0.2-0.2,0.6-0.1,0.7-0.4c0.5-0.6,0.7-1.4,1.2-2
		c0.2-0.2,0.3-0.5,0.6-0.6C-187.9,414.1-187.2,414.3-186.5,414.5z"/>
	<g>
		<polygon class="st1" points="-180.9,417.4 -181,417.1 -180.9,417.4 		"/>
		<path class="st1" d="M-180.7,418c-0.1,0-0.1-0.1-0.1-0.2C-180.8,417.8-180.7,417.9-180.7,418z"/>
		<path class="st2" d="M-192.7,418.1c-0.1-0.2,0.1-0.2,0.2-0.3C-192.5,417.9-192.6,418.1-192.7,418.1z"/>
		<polygon class="st2" points="-190.3,418.2 -190.3,418.2 -190.2,418.2 		"/>
		<path class="st2" d="M-190.8,418.3c-0.1,0.1-0.1,0.1-0.2,0.1C-190.9,418.4-190.8,418.3-190.8,418.3z"/>
		<path class="st1" d="M-186,418.8c-0.1,0.1-0.4,0.2-0.4,0.3c-0.2,0-0.4,0.2-0.6,0.2c0-0.2,0.3-0.1,0.4-0.3l0.2-0.2l0,0.1
			c0.1-0.1,0.3,0,0.3-0.2L-186,418.8z"/>
		<path class="st1" d="M-186.8,418.9c0,0.1-0.2,0.2-0.3,0.2C-187,419-186.9,419-186.8,418.9z"/>
		<path class="st2" d="M-191.9,419.2C-191.9,419.3-192,419.2-191.9,419.2C-192,419.2-192,419.2-191.9,419.2z"/>
		<rect x="-186.3" y="419.3" class="st1" width="0.1" height="0.1"/>
		<path class="st1" d="M-186.4,419.5c0,0.1-0.1,0.1-0.1,0.1h-0.1C-186.6,419.5-186.5,419.5-186.4,419.5
			C-186.4,419.5-186.4,419.5-186.4,419.5z"/>
		<path class="st1" d="M-185.9,420c0,0.1-0.2,0.1-0.2,0.1c-0.1,0,0-0.1,0-0.1C-186,420-186,420-185.9,420z"/>
		<path class="st2" d="M-185.9,420.1c0,0.1-0.2,0.1-0.3,0.2C-186.2,420.2-186,420.2-185.9,420.1
			C-185.9,420.1-185.9,420.1-185.9,420.1z"/>
		<path class="st2" d="M-179.9,420.4c0.1,0.1,0.2,0.2,0.2,0.3l-0.1,0.1c-0.2-0.2-0.3-0.4-0.4-0.6C-180,420.2-180,420.3-179.9,420.4z
			"/>
		<path class="st1" d="M-176.2,421.7c-0.1,0-0.2-0.1-0.3-0.1L-176.2,421.7z"/>
		<path class="st1" d="M-175.5,422.1c-0.2-0.1-0.5-0.1-0.6-0.3C-175.9,421.8-175.7,422-175.5,422.1z"/>
		<polygon class="st1" points="-177.7,422.1 -178,421.8 -177.8,421.9 		"/>
		<polygon class="st1" points="-175.6,422.8 -175.6,422.8 -175.5,422.8 		"/>
		<path class="st1" d="M-175.7,422.9h-0.1v0C-175.8,422.9-175.7,422.9-175.7,422.9z"/>
	</g>
</g>
<path class="st0" d="M-72.6,421.5h6v1.4H-71v1.8h4.1v1.4H-71v2.2h4.5v1.4h-6.2V421.5z"/>
<path class="st0" d="M-59.3,426.9c0.1,0.4,0.3,1.6,1.8,1.6c1.1,0,1.6-0.6,1.6-1.1c0-0.7-0.6-0.8-2.1-1.2c-0.8-0.2-2.6-0.6-2.6-2.4
	c0-0.9,0.6-2.3,3-2.3c1.6,0,3,0.6,3.1,2.5l-1.6,0.1c-0.1-0.4-0.2-1.2-1.5-1.2c-0.5,0-1.4,0.1-1.4,0.8c0,0.5,0.5,0.8,1.8,1.1
	c1.2,0.3,2.9,0.7,2.9,2.7c0,1-0.6,1.8-1.3,2.1c-0.7,0.3-1.5,0.4-1.9,0.4c-0.9,0-3-0.1-3.4-2.8L-59.3,426.9z"/>
<path class="st0" d="M-49.7,421.5v4.4c0,1,0,1.4,0.2,1.8c0.3,0.6,0.9,0.7,1.4,0.7c1.6,0,1.6-1,1.6-2.4v-4.5h1.6v4.3
	c0,1.5-0.1,2.3-0.5,2.9c-0.6,1-1.8,1.1-2.7,1.1c-3.3,0-3.3-2.1-3.3-3.9v-4.3H-49.7z"/>
<path class="st0" d="M-41.5,421.5h1.6l3.3,5.4h0v-5.4h1.5v8.1h-1.6l-3.3-5.3h0v5.3h-1.5V421.5z"/>
<path class="st0" d="M-28.5,421.5h5.6v1.4h-3.9v1.9h3.4v1.4h-3.4v3.5h-1.6V421.5z"/>
<path class="st0" d="M-20.2,421.5h1.6v3.2h3.2v-3.2h1.6v8.1h-1.6v-3.6h-3.2v3.6h-1.6V421.5z"/>
<path class="st0" d="M-3.8,427.2c-0.2,0.6-0.7,2.6-3.4,2.6c-2.2,0-3.7-1.6-3.7-4.1c0-2.3,1.1-4.3,3.8-4.3c0.5,0,1.6,0,2.5,0.9
	c0.4,0.4,0.6,0.9,0.8,1.5l-1.6,0.4c-0.2-0.9-0.9-1.4-1.7-1.4c-2,0-2,2.2-2,2.8c0,0.8,0.1,1.5,0.4,2c0.3,0.5,0.8,0.8,1.6,0.8
	c1.1,0,1.6-0.8,1.8-1.7L-3.8,427.2z"/>
<circle class="st0" cx="-63.4" cy="428.6" r="1"/>
<polygon class="st0" points="-132.1,426.1 -128.5,426.1 -128.5,415.4 -125.8,415.4 -125.8,429.6 -128.5,429.6 -128.5,428.7 
	-138.5,428.6 -138.6,429.5 -141.3,429.5 -141.3,415.3 -138.6,415.3 -138.6,426.1 -134.8,426.1 -134.8,413 -132.1,413 "/>
<polygon class="st0" points="-148.4,415.9 -154.4,416 -154.4,416 -154.4,419.6 -148.8,419.7 -148.8,422.3 -154.4,422.3 
	-154.5,426.8 -147.7,426.8 -147.7,429.5 -163.9,429.5 -163.9,426.9 -157.2,426.8 -157.2,422.3 -162.7,422.3 -162.7,419.7 
	-157.2,419.7 -157.2,415.9 -163.1,415.9 -163.1,413.3 -148.4,413.3 "/>
<path class="st0" d="M-150.1,423.7c0.2,0.4,0.3,0.8,0.2,1.3c-0.1,0.5-0.6,1-1.1,1.1c-0.7,0.2-1.3,0-1.7-0.5
	c-0.3-0.3-0.4-0.7-0.4-1.2c0.1-0.6,0.5-1.2,1.1-1.4C-151.2,422.8-150.5,423.1-150.1,423.7z"/>
<path class="st0" d="M-111.6,415.7L-111.6,415.7c0.9,1.2,1.6,1.9,2.1,2.4v0.1h-4.3v-0.1c1.2-1.4,1.9-2.2,2-2.5H-111.6z
	 M-113.3,412.9c-1,2-1.9,3.2-2.7,3.8c-1.4,1.4-2.8,2.3-4.2,2.7v0.2l0.2,0.3c0.3,0.6,0.6,1,0.7,1.5c0.1,0.4,0.2,0.5,0.2,0.5h0.3
	c1.4-0.7,2.5-1.4,3.3-2.1h0l0,0.2c0,0.4,0,0.5,0.1,0.5h2.1v1.1h-1.3l-3.3,0l-0.1,0.1v2.1l0.1,0.1l2.1,0v0.1l-0.1,0.1l-1.5,0.5v0.2
	l0,0c0.4,0.9,0.7,1.7,0.8,2.6v0.2l-2.9,0l-0.1,0.1v2.2l0.1,0.1c0.5,0,0.8,0,1-0.1h13.9l0.1-0.1v-2.2l-0.1-0.1c-0.3,0-0.6,0-1,0.1
	h-2.3v-0.1c0.6-1.1,1.1-2,1.4-2.8v-0.1l-0.6-0.3c-0.6-0.2-1-0.3-0.9-0.4v-0.1h2.3l0.1-0.1v-2.1l-0.1-0.1c-0.3,0-0.7,0-1,0.1h-4.1
	v-1.1h2.5l0.1-0.1v-0.9l0-0.1l0,0c1.1,0.7,1.9,1.1,2.2,1.3c0.8,0.3,1.2,0.5,1.2,0.6h0.4c0.4-1,0.9-1.7,1.4-2.2v-0.2
	c0-0.1-0.1-0.1-0.3-0.1c-2.9-0.9-5.2-2.7-7.1-5.2v-0.2l0.1-0.2v-0.1l-0.3-0.1C-111.4,412.9-112.3,412.8-113.3,412.9L-113.3,412.9z
	 M-113.1,427.5h-2.5v-0.1l0.1-0.1l1.8-0.7v-0.1c-0.6-1.5-1-2.3-1.3-2.6v-0.1h1.9V427.5z M-110,426.6v0.1c1,0.3,1.6,0.5,1.8,0.7v0.1
	h-2.4v-3.7h1.9C-109,424.8-109.4,425.8-110,426.6z"/>
<path class="st0" d="M-95.5,413l2.3,0.1l0.1,0.1v0.2l-0.1,0.3v3l1.4,0l0.1,0.1v2.2l-0.1,0.1l-1.4,0v1.8h0.1l1.3-0.3h0.1l0.1,0.1
	l-0.1,1.5c1.3-0.8,2.3-2,3-3.5h0.1l1.6,0.7l0.1,0.1v0.1c-0.7,1.2-1.5,2.4-2.5,3.4v0c0,0.1,0.8,0.2,2.3,0.1h3.4l0.5-0.1v-0.1
	c-1.1-0.9-2-2.1-2.8-3.5V419l1.5-0.8h0.3c0.4,0.9,1.3,2,2.9,3.1l0.3,0.2v0.1c-0.3,0.5-0.7,1-1.2,1.6l0,0h-0.2l-0.3-0.1h-0.1v1.9
	l-0.1,0.1l-2.5,0v2.5h3.1l0.7-0.1h0.1l0.1,0.1v2.1l-0.1,0.1c0-0.1-1.3-0.1-4-0.1h-5.8l-0.8,0.1h-0.1l-0.1-0.1v-2.1l0.1-0.1
	c0,0.1,1.4,0.1,4.1,0.1h0.3V425h-2.3c0.1,0,0,0-0.4,0c-0.1,0.1-0.1-0.1-0.1-0.5v-0.9l0,0h0l-0.2,0.1h-0.1c-0.2-0.3-0.6-0.7-1.2-1
	l-0.1,0h-0.1l-1.1,0.3l0,0v5.4c-0.2,1-0.9,1.6-2.1,1.8h-0.8c-0.1,0-0.2-0.2-0.3-0.7c-0.1-0.3-0.3-0.9-0.7-1.6v-0.1
	c0-0.1,0.1-0.1,0.4-0.1h0.9c0.1,0,0.2-0.1,0.3-0.3v-3.8h-0.1l-1.7,0.5h-0.3c-0.2-0.3-0.3-1.2-0.4-2.5c0-0.1,0.1-0.1,0.4-0.1
	c0.7,0,1.4-0.1,2-0.3l0,0v-2.4H-97l-0.6,0.1h-0.1l-0.1-0.1v-2.2l0.1-0.1l1.9,0h0.2v-2.9V413L-95.5,413L-95.5,413z M-87.7,413.1h2.2
	l0.1,0.1c-0.1,0.5-0.2,1.3-0.1,2.3h4.2l0.1,0.1v3.4l-0.1,0.1h-2.1c-0.1,0.1-0.1-0.1-0.1-0.5v-1.1l0,0h-5.7v1.5l-0.1,0.1h-2.1
	l-0.1-0.1v-3.5l0.1-0.1h3.6L-87.7,413.1L-87.7,413.1z"/>
</svg>
